<svg width="100" height="114" viewBox="0 0 100 114" fill="none" xmlns="http://www.w3.org/2000/svg">
<g filter="url(#filter0_d_30_38)">
<path fill="white" d="M50.0001 9.45425C38.7498 9.70275 28.0454 15.0028 20.2345 24.1922C12.4237 33.3815 8.14376 45.7101 8.33344 58.4743V80.3607C8.33344 84.1004 9.31092 87.7562 11.1423 90.8657C12.9736 93.9751 15.5766 96.3987 18.622 97.8298C21.6675 99.2609 25.0186 99.6354 28.2516 98.9058C31.4846 98.1762 34.4543 96.3754 36.7852 93.731C39.1161 91.0866 40.7034 87.7174 41.3465 84.0496C41.9896 80.3817 41.6596 76.5798 40.3981 73.1248C39.1366 69.6697 37.0004 66.7166 34.2596 64.639C31.5188 62.5613 28.2965 61.4523 25.0001 61.4523C22.0628 61.4663 19.1834 62.381 16.6668 64.0995V58.4743C16.4767 48.2173 19.8785 38.2931 26.1267 30.8767C32.3749 23.4602 40.9598 19.1564 50.0001 18.9084C59.0404 19.1564 67.6253 23.4602 73.8736 30.8767C80.1217 38.2931 83.5236 48.2173 83.3334 58.4743V64.0995C80.8168 62.381 77.9374 61.4663 75.0001 61.4523C71.7038 61.4523 68.4814 62.5613 65.7406 64.639C62.9998 66.7166 60.8636 69.6697 59.6021 73.1248C58.3406 76.5798 58.0106 80.3817 58.6537 84.0496C59.2968 87.7174 60.8841 91.0866 63.215 93.731C65.5459 96.3754 68.5156 98.1762 71.7486 98.9058C74.9816 99.6354 78.3327 99.2609 81.3782 97.8298C84.4236 96.3987 87.0266 93.9751 88.8579 90.8657C90.6893 87.7562 91.6668 84.1004 91.6668 80.3607V58.4743C91.8564 45.7101 87.5766 33.3815 79.7657 24.1922C71.9548 15.0028 61.2505 9.70275 50.0001 9.45425Z" fill="#5980AD"/>
</g>
<defs>
<filter id="filter0_d_30_38" x="4.32739" y="9.45425" width="91.3455" height="97.8149" filterUnits="userSpaceOnUse" color-interpolation-filters="sRGB">
<feFlood flood-opacity="0" result="BackgroundImageFix"/>
<feColorMatrix in="SourceAlpha" type="matrix" values="0 0 0 0 0 0 0 0 0 0 0 0 0 0 0 0 0 0 127 0" result="hardAlpha"/>
<feOffset dy="4"/>
<feGaussianBlur stdDeviation="2"/>
<feComposite in2="hardAlpha" operator="out"/>
<feColorMatrix type="matrix" values="0 0 0 0 0 0 0 0 0 0 0 0 0 0 0 0 0 0 0.25 0"/>
<feBlend mode="normal" in2="BackgroundImageFix" result="effect1_dropShadow_30_38"/>
<feBlend mode="normal" in="SourceGraphic" in2="effect1_dropShadow_30_38" result="shape"/>
</filter>
</defs>
</svg>
